<svg width="63" height="18" viewBox="0 0 63 18" fill="none" xmlns="http://www.w3.org/2000/svg">
<path d="M-7.613e-05 17.2812L6.11992 0.481249H9.79192L15.9359 17.2812H12.5039L7.94392 4.17725L3.38392 17.2812H-7.613e-05ZM2.71192 13.4652L3.55192 10.9453H12.1199L12.9599 13.4652H2.71192ZM22.2537 17.5693C21.2617 17.5693 20.4137 17.3612 19.7097 16.9452C19.0217 16.5292 18.4937 15.9132 18.1257 15.0972C17.7737 14.2652 17.5977 13.2492 17.5977 12.0492V5.37725H20.8137V11.7612C20.8137 12.7532 21.0137 13.5132 21.4137 14.0412C21.8137 14.5692 22.4457 14.8332 23.3097 14.8332C23.8697 14.8332 24.3657 14.7052 24.7977 14.4492C25.2297 14.1772 25.5657 13.8012 25.8057 13.3212C26.0457 12.8252 26.1657 12.2252 26.1657 11.5212V5.37725H29.4057V17.2812H26.5497L26.3097 15.2892C25.9257 15.9772 25.3897 16.5292 24.7017 16.9452C24.0137 17.3612 23.1977 17.5693 22.2537 17.5693ZM38.0039 17.5693C36.8999 17.5693 35.8999 17.2972 35.0039 16.7532C34.1239 16.2092 33.4279 15.4652 32.9159 14.5212C32.4039 13.5612 32.1479 12.4892 32.1479 11.3052C32.1479 10.1052 32.4039 9.04125 32.9159 8.11325C33.4279 7.16925 34.1239 6.43325 35.0039 5.90525C35.8999 5.36125 36.8999 5.08925 38.0039 5.08925C38.8839 5.08925 39.6519 5.25725 40.3079 5.59325C40.9799 5.91325 41.5159 6.36125 41.9159 6.93725V0.00124931H45.1559V17.2812H42.2759L41.9159 15.6252C41.6759 15.9772 41.3719 16.3052 41.0039 16.6092C40.6519 16.8972 40.2279 17.1292 39.7319 17.3053C39.2359 17.4813 38.6599 17.5693 38.0039 17.5693ZM38.7239 14.7372C39.3639 14.7372 39.9319 14.5932 40.4279 14.3052C40.9239 14.0012 41.3079 13.5932 41.5799 13.0812C41.8679 12.5692 42.0119 11.9852 42.0119 11.3292C42.0119 10.6572 41.8679 10.0652 41.5799 9.55325C41.3079 9.04125 40.9239 8.64125 40.4279 8.35325C39.9319 8.06525 39.3639 7.92125 38.7239 7.92125C38.0999 7.92125 37.5319 8.06525 37.0199 8.35325C36.5239 8.64125 36.1399 9.04125 35.8679 9.55325C35.5959 10.0652 35.4599 10.6492 35.4599 11.3052C35.4599 11.9772 35.5959 12.5692 35.8679 13.0812C36.1399 13.5932 36.5239 14.0012 37.0199 14.3052C37.5319 14.5932 38.0999 14.7372 38.7239 14.7372ZM48.3779 17.2812V5.37725H51.6179V17.2812H48.3779ZM49.9859 3.64925C49.4099 3.64925 48.9299 3.48125 48.5459 3.14525C48.1779 2.79325 47.9939 2.35325 47.9939 1.82525C47.9939 1.29725 48.1779 0.865249 48.5459 0.52925C48.9299 0.177249 49.4099 0.00124931 49.9859 0.00124931C50.5779 0.00124931 51.0579 0.177249 51.4259 0.52925C51.8099 0.865249 52.0019 1.29725 52.0019 1.82525C52.0019 2.35325 51.8099 2.79325 51.4259 3.14525C51.0579 3.48125 50.5779 3.64925 49.9859 3.64925ZM60.221 17.2812C59.373 17.2812 58.629 17.1532 57.989 16.8972C57.365 16.6252 56.877 16.1852 56.525 15.5772C56.173 14.9532 55.997 14.1052 55.997 13.0332V8.08925H53.957V5.37725H55.997L56.357 2.13725H59.237V5.37725H62.405V8.08925H59.237V13.0812C59.237 13.6252 59.357 14.0012 59.597 14.2092C59.837 14.4172 60.245 14.5212 60.821 14.5212H62.333V17.2812H60.221Z" fill="black"/>
</svg>
