<svg width="118" height="52" viewBox="0 0 118 52" fill="none" xmlns="http://www.w3.org/2000/svg">
<mask id="path-1-outside-1_211_13922" maskUnits="userSpaceOnUse" x="-0.1604" y="6" width="118" height="40" fill="black">
<rect fill="white" x="-0.1604" y="6" width="118" height="40"/>
<path d="M3.10522 43L18.3692 9.4H21.1532L36.4172 43H33.6332L29.2172 33.304H10.3052L5.93722 43H3.10522ZM11.4572 30.76H28.0652L19.7612 12.472L11.4572 30.76ZM59.7392 31C59.7392 38.152 55.1792 43.48 49.0832 43.48C42.7952 43.48 38.1872 38.152 38.1872 31V19H40.7792V31C40.7792 36.712 44.2832 40.888 49.0832 40.888C53.7392 40.888 57.2432 36.664 57.2432 31V19H59.7392V31ZM85.7736 9.4H88.3656V31C88.3656 38.104 83.6136 43.48 76.5096 43.48C69.6936 43.48 64.7016 38.296 64.7016 31C64.7016 23.848 69.6456 18.52 76.2216 18.52C80.3976 18.52 83.8536 20.728 85.7736 24.136V9.4ZM76.5096 40.888C82.5096 40.888 85.7736 36.232 85.7736 31C85.7736 25.432 81.7896 21.112 76.5096 21.112C71.2296 21.112 67.2936 25.432 67.2936 31C67.2936 36.232 70.7016 40.888 76.5096 40.888ZM95.1193 10.84C95.1193 9.736 95.8393 8.92 96.9913 8.92C98.1434 8.92 98.8634 9.736 98.8634 10.84C98.8634 11.896 98.1434 12.76 96.9913 12.76C95.8393 12.76 95.1193 11.896 95.1193 10.84ZM95.6953 43V19H98.2873V43H95.6953ZM115.336 40.984V43.48C108.424 43.48 105.016 39.688 105.016 33.4V13.336H107.608V19H115.336V21.592H107.608V33.4C107.608 38.2 109.864 40.984 115.336 40.984Z"/>
</mask>
<path d="M3.10522 43L18.3692 9.4H21.1532L36.4172 43H33.6332L29.2172 33.304H10.3052L5.93722 43H3.10522ZM11.4572 30.76H28.0652L19.7612 12.472L11.4572 30.76ZM59.7392 31C59.7392 38.152 55.1792 43.48 49.0832 43.48C42.7952 43.48 38.1872 38.152 38.1872 31V19H40.7792V31C40.7792 36.712 44.2832 40.888 49.0832 40.888C53.7392 40.888 57.2432 36.664 57.2432 31V19H59.7392V31ZM85.7736 9.4H88.3656V31C88.3656 38.104 83.6136 43.48 76.5096 43.48C69.6936 43.48 64.7016 38.296 64.7016 31C64.7016 23.848 69.6456 18.52 76.2216 18.52C80.3976 18.52 83.8536 20.728 85.7736 24.136V9.4ZM76.5096 40.888C82.5096 40.888 85.7736 36.232 85.7736 31C85.7736 25.432 81.7896 21.112 76.5096 21.112C71.2296 21.112 67.2936 25.432 67.2936 31C67.2936 36.232 70.7016 40.888 76.5096 40.888ZM95.1193 10.84C95.1193 9.736 95.8393 8.92 96.9913 8.92C98.1434 8.92 98.8634 9.736 98.8634 10.84C98.8634 11.896 98.1434 12.76 96.9913 12.76C95.8393 12.76 95.1193 11.896 95.1193 10.84ZM95.6953 43V19H98.2873V43H95.6953ZM115.336 40.984V43.48C108.424 43.48 105.016 39.688 105.016 33.4V13.336H107.608V19H115.336V21.592H107.608V33.4C107.608 38.2 109.864 40.984 115.336 40.984Z" fill="#5F7EFF"/>
<path d="M3.10522 43L1.28431 42.1728L-4.93526e-05 45H3.10522V43ZM18.3692 9.4V7.4H17.0811L16.5483 8.57278L18.3692 9.4ZM21.1532 9.4L22.9741 8.57278L22.4414 7.4H21.1532V9.4ZM36.4172 43V45H39.5225L38.2381 42.1728L36.4172 43ZM33.6332 43L31.8131 43.829L32.3465 45H33.6332V43ZM29.2172 33.304L31.0373 32.475L30.504 31.304H29.2172V33.304ZM10.3052 33.304V31.304H9.01264L8.48172 32.4825L10.3052 33.304ZM5.93722 43V45H7.22981L7.76073 43.8215L5.93722 43ZM11.4572 30.76L9.63616 29.9331L8.35257 32.76H11.4572V30.76ZM28.0652 30.76V32.76H31.1699L29.8863 29.9331L28.0652 30.76ZM19.7612 12.472L21.5823 11.6451L19.7612 7.63457L17.9402 11.6451L19.7612 12.472ZM3.10522 43L4.92614 43.8272L20.1901 10.2272L18.3692 9.4L16.5483 8.57278L1.28431 42.1728L3.10522 43ZM18.3692 9.4V11.4H21.1532V9.4V7.4H18.3692V9.4ZM21.1532 9.4L19.3323 10.2272L34.5963 43.8272L36.4172 43L38.2381 42.1728L22.9741 8.57278L21.1532 9.4ZM36.4172 43V41H33.6332V43V45H36.4172V43ZM33.6332 43L35.4533 42.171L31.0373 32.475L29.2172 33.304L27.3971 34.133L31.8131 43.829L33.6332 43ZM29.2172 33.304V31.304H10.3052V33.304V35.304H29.2172V33.304ZM10.3052 33.304L8.48172 32.4825L4.11372 42.1785L5.93722 43L7.76073 43.8215L12.1287 34.1255L10.3052 33.304ZM5.93722 43V41H3.10522V43V45H5.93722V43ZM11.4572 30.76V32.76H28.0652V30.76V28.76H11.4572V30.76ZM28.0652 30.76L29.8863 29.9331L21.5823 11.6451L19.7612 12.472L17.9402 13.2989L26.2442 31.5869L28.0652 30.76ZM19.7612 12.472L17.9402 11.6451L9.63616 29.9331L11.4572 30.76L13.2783 31.5869L21.5823 13.2989L19.7612 12.472ZM38.1872 19V17H36.1872V19H38.1872ZM40.7792 19H42.7792V17H40.7792V19ZM57.2432 19V17H55.2432V19H57.2432ZM59.7392 19H61.7392V17H59.7392V19ZM59.7392 31H57.7392C57.7392 37.3541 53.7911 41.48 49.0832 41.48V43.48V45.48C56.5673 45.48 61.7392 38.9499 61.7392 31H59.7392ZM49.0832 43.48V41.48C44.151 41.48 40.1872 37.3166 40.1872 31H38.1872H36.1872C36.1872 38.9874 41.4394 45.48 49.0832 45.48V43.48ZM38.1872 31H40.1872V19H38.1872H36.1872V31H38.1872ZM38.1872 19V21H40.7792V19V17H38.1872V19ZM40.7792 19H38.7792V31H40.7792H42.7792V19H40.7792ZM40.7792 31H38.7792C38.7792 37.4747 42.8653 42.888 49.0832 42.888V40.888V38.888C45.7011 38.888 42.7792 35.9493 42.7792 31H40.7792ZM49.0832 40.888V42.888C55.1835 42.888 59.2432 37.3951 59.2432 31H57.2432H55.2432C55.2432 35.9329 52.295 38.888 49.0832 38.888V40.888ZM57.2432 31H59.2432V19H57.2432H55.2432V31H57.2432ZM57.2432 19V21H59.7392V19V17H57.2432V19ZM59.7392 19H57.7392V31H59.7392H61.7392V19H59.7392ZM85.7736 9.4V7.4H83.7736V9.4H85.7736ZM88.3656 9.4H90.3656V7.4H88.3656V9.4ZM85.7736 24.136L84.0311 25.1177L87.7736 31.7606V24.136H85.7736ZM85.7736 9.4V11.4H88.3656V9.4V7.4H85.7736V9.4ZM88.3656 9.4H86.3656V31H88.3656H90.3656V9.4H88.3656ZM88.3656 31H86.3656C86.3656 37.1384 82.375 41.48 76.5096 41.48V43.48V45.48C84.8522 45.48 90.3656 39.0696 90.3656 31H88.3656ZM76.5096 43.48V41.48C70.8915 41.48 66.7016 37.2871 66.7016 31H64.7016H62.7016C62.7016 39.3049 68.4957 45.48 76.5096 45.48V43.48ZM64.7016 31H66.7016C66.7016 24.8019 70.8951 20.52 76.2216 20.52V18.52V16.52C68.3961 16.52 62.7016 22.8941 62.7016 31H64.7016ZM76.2216 18.52V20.52C79.6369 20.52 82.4462 22.3044 84.0311 25.1177L85.7736 24.136L87.5161 23.1543C85.261 19.1516 81.1583 16.52 76.2216 16.52V18.52ZM85.7736 24.136H87.7736V9.4H85.7736H83.7736V24.136H85.7736ZM76.5096 40.888V42.888C80.0729 42.888 82.9489 41.4845 84.9069 39.2113C86.8337 36.9744 87.7736 34.0159 87.7736 31H85.7736H83.7736C83.7736 33.2161 83.0815 35.2016 81.8763 36.6007C80.7023 37.9635 78.9463 38.888 76.5096 38.888V40.888ZM85.7736 31H87.7736C87.7736 24.4615 83.0237 19.112 76.5096 19.112V21.112V23.112C80.5555 23.112 83.7736 26.4025 83.7736 31H85.7736ZM76.5096 21.112V19.112C69.9824 19.112 65.2936 24.4757 65.2936 31H67.2936H69.2936C69.2936 26.3883 72.4768 23.112 76.5096 23.112V21.112ZM67.2936 31H65.2936C65.2936 37.0613 69.3406 42.888 76.5096 42.888V40.888V38.888C72.0626 38.888 69.2936 35.4027 69.2936 31H67.2936ZM95.6954 43H93.6954V45H95.6954V43ZM95.6954 19V17H93.6954V19H95.6954ZM98.2874 19H100.287V17H98.2874V19ZM98.2874 43V45H100.287V43H98.2874ZM95.1193 10.84H97.1193C97.1193 10.7811 97.1289 10.7593 97.1262 10.7665C97.1231 10.775 97.1095 10.8053 97.0753 10.8415C97.04 10.8787 97.0002 10.9035 96.9692 10.9162C96.9394 10.9284 96.9412 10.92 96.9913 10.92V8.92V6.92C95.9207 6.92 94.9091 7.31189 94.1714 8.09051C93.4463 8.85592 93.1193 9.85256 93.1193 10.84H95.1193ZM96.9913 8.92V10.92C97.0415 10.92 97.0433 10.9284 97.0135 10.9162C96.9825 10.9035 96.9427 10.8787 96.9074 10.8415C96.8732 10.8053 96.8596 10.775 96.8565 10.7665C96.8538 10.7593 96.8633 10.7811 96.8633 10.84H98.8633H100.863C100.863 9.85256 100.536 8.85592 99.8113 8.09051C99.0736 7.31189 98.062 6.92 96.9913 6.92V8.92ZM98.8633 10.84H96.8633C96.8633 10.9157 96.8402 10.8927 96.8956 10.8332C96.9225 10.8042 96.956 10.7812 96.9878 10.7677C97.0197 10.7542 97.0263 10.76 96.9913 10.76V12.76V14.76C99.3801 14.76 100.863 12.8636 100.863 10.84H98.8633ZM96.9913 12.76V10.76C96.9564 10.76 96.963 10.7542 96.9949 10.7677C97.0267 10.7812 97.0602 10.8042 97.0871 10.8332C97.1425 10.8927 97.1193 10.9157 97.1193 10.84H95.1193H93.1193C93.1193 12.8636 94.6026 14.76 96.9913 14.76V12.76ZM95.6954 43H97.6954V19H95.6954H93.6954V43H95.6954ZM95.6954 19V21H98.2874V19V17H95.6954V19ZM98.2874 19H96.2874V43H98.2874H100.287V19H98.2874ZM98.2874 43V41H95.6954V43V45H98.2874V43ZM115.336 40.984H117.336V38.984H115.336V40.984ZM115.336 43.48V45.48H117.336V43.48H115.336ZM105.016 13.336V11.336H103.016V13.336H105.016ZM107.608 13.336H109.608V11.336H107.608V13.336ZM107.608 19H105.608V21H107.608V19ZM115.336 19H117.336V17H115.336V19ZM115.336 21.592V23.592H117.336V21.592H115.336ZM107.608 21.592V19.592H105.608V21.592H107.608ZM115.336 40.984H113.336V43.48H115.336H117.336V40.984H115.336ZM115.336 43.48V41.48C112.237 41.48 110.238 40.6358 109.006 39.3912C107.77 38.1421 107.016 36.1962 107.016 33.4H105.016H103.016C103.016 36.8918 103.967 39.9859 106.163 42.2048C108.363 44.4282 111.524 45.48 115.336 45.48V43.48ZM105.016 33.4H107.016V13.336H105.016H103.016V33.4H105.016ZM105.016 13.336V15.336H107.608V13.336V11.336H105.016V13.336ZM107.608 13.336H105.608V19H107.608H109.608V13.336H107.608ZM107.608 19V21H115.336V19V17H107.608V19ZM115.336 19H113.336V21.592H115.336H117.336V19H115.336ZM115.336 21.592V19.592H107.608V21.592V23.592H115.336V21.592ZM107.608 21.592H105.608V33.4H107.608H109.608V21.592H107.608ZM107.608 33.4H105.608C105.608 36.0784 106.236 38.5682 107.98 40.3793C109.737 42.2045 112.283 42.984 115.336 42.984V40.984V38.984C112.917 38.984 111.599 38.3715 110.861 37.6047C110.109 36.8238 109.608 35.5215 109.608 33.4H107.608Z" fill="#5F7EFF" mask="url(#path-1-outside-1_211_13922)"/>
</svg>
